<svg xmlns="http://www.w3.org/2000/svg" xmlns:xlink="http://www.w3.org/1999/xlink" version="1.1" id="Layer_1" x="0px" y="0px" viewBox="0 0 512 512" style="enable-background:new 0 0 512 512;" xml:space="preserve">
<polygon style="fill:#6A269B;" points="26.308,150.799 58.35,475.962 369.33,475.962 401.371,150.799 "/>
<polygon style="fill:#420868;" points="401.371,150.799 213.839,150.799 213.839,475.962 369.33,475.962 "/>
<path style="fill:#CAF9FF;" d="M423.793,25.964c-2.843-3.137-6.88-4.927-11.114-4.927H14.999c-4.234,0-8.271,1.79-11.114,4.927  c-2.844,3.137-4.228,7.33-3.814,11.544L11.381,152.27c0,0.001,0,0.001,0,0.001l32.042,325.164  c0.757,7.677,7.213,13.527,14.927,13.527h310.98c7.715,0,14.17-5.852,14.927-13.528l32.041-325.163l11.309-114.763  C428.02,33.294,426.636,29.1,423.793,25.964z M355.735,460.963H71.943L42.857,165.799H384.82L355.735,460.963z"/>
<path style="fill:#8AE9ED;" d="M423.793,25.964c-2.843-3.137-6.88-4.927-11.114-4.927h-198.84V165.8H384.82l-29.085,295.163H213.839  v29.999H369.33c7.715,0,14.17-5.852,14.927-13.528l32.041-325.163l11.309-114.763C428.02,33.294,426.636,29.1,423.793,25.964z"/>
<path style="fill:#91DC5A;" d="M508.458,101.945c-1.521-6.082-6.663-10.576-12.894-11.27c-0.351-0.039-8.743-0.956-20.956-0.955  c-29.112,0-68.774,4.959-92.406,28.591c-44.284,44.285-28.178,115.171-27.47,118.167c1.346,5.705,5.895,10.104,11.639,11.258  c0.451,0.092,11.225,2.223,26.541,2.223c25.367,0,61.271-5.668,88.267-32.671C525.566,172.911,509.177,104.822,508.458,101.945z"/>
<path style="fill:#6DC82A;" d="M508.458,101.945c-0.676-2.699-2.067-5.085-3.948-6.965L357.387,242.102  c2.17,2.855,5.332,4.9,8.982,5.635c0.451,0.092,11.225,2.223,26.541,2.223c25.367,0,61.271-5.668,88.267-32.671  C525.566,172.911,509.177,104.822,508.458,101.945z"/>
<path style="fill:#6A269B;" d="M369.33,219.974c-74.712,0-135.494,60.783-135.494,135.494c0,74.711,60.783,135.492,135.494,135.492  s135.494-60.781,135.494-135.492C504.824,280.757,444.042,219.974,369.33,219.974z"/>
<path style="fill:#420868;" d="M369.33,219.974v270.987c74.712,0,135.494-60.781,135.494-135.492  C504.824,280.757,444.042,219.974,369.33,219.974z"/>
<path style="fill:#2D2D30;" d="M395.642,311.386c-1.883-5.792-6.957-9.643-12.642-10.266c-2.35-5.214-7.58-8.85-13.67-8.85  c-6.091,0-11.321,3.636-13.67,8.85c-5.686,0.622-10.762,4.474-12.644,10.267c-1.883,5.793-0.041,11.894,4.192,15.738  c-1.166,5.602,0.929,11.62,5.857,15.2c2.662,1.935,5.748,2.866,8.805,2.866c2.603,0,5.176-0.699,7.461-2.006  c2.283,1.307,4.855,2.006,7.459,2.006c3.056,0,6.14-0.931,8.802-2.864c4.93-3.58,7.026-9.6,5.86-15.2  C395.683,323.281,397.526,317.179,395.642,311.386z"/>
<path style="fill:#1D1D1F;" d="M395.642,311.386c-1.883-5.792-6.957-9.643-12.642-10.266c-2.35-5.214-7.58-8.85-13.67-8.85v50.916  c2.283,1.306,4.855,2.005,7.458,2.005c3.056,0,6.14-0.931,8.802-2.864c4.93-3.58,7.026-9.6,5.86-15.2  C395.683,323.281,397.526,317.179,395.642,311.386z"/>
<g>
</g>
<g>
</g>
<g>
</g>
<g>
</g>
<g>
</g>
<g>
</g>
<g>
</g>
<g>
</g>
<g>
</g>
<g>
</g>
<g>
</g>
<g>
</g>
<g>
</g>
<g>
</g>
<g>
</g>
</svg>