<svg xmlns="http://www.w3.org/2000/svg" id="Layer_1" enable-background="new 0 0 509.747 509.747" height="512" viewBox="0 0 509.747 509.747" width="512"><g><g><path d="m451.819 509.747h-351.526c-7.766 0-14.061-6.295-14.061-14.061v-481.619c0-7.766 6.295-14.061 14.061-14.061h351.527c7.766 0 14.061 6.295 14.061 14.061v481.618c0 7.767-6.296 14.062-14.062 14.062z" fill="#0082ff"/></g><g fill="#293939"><path d="m58.866 90.642h54.079c8.284 0 15-6.716 15-15s-6.716-15-15-15h-54.079c-8.284 0-15 6.716-15 15s6.716 15 15 15z"/><path d="m112.945 120.569h-54.079c-8.284 0-15 6.716-15 15s6.716 15 15 15h54.079c8.284 0 15-6.716 15-15s-6.715-15-15-15z"/><path d="m112.945 180.497h-54.079c-8.284 0-15 6.716-15 15s6.716 15 15 15h54.079c8.284 0 15-6.716 15-15s-6.715-15-15-15z"/><path d="m112.945 239.329h-54.079c-8.284 0-15 6.716-15 15s6.716 15 15 15h54.079c8.284 0 15-6.716 15-15s-6.715-15-15-15z"/><path d="m112.945 299.257h-54.079c-8.284 0-15 6.716-15 15s6.716 15 15 15h54.079c8.284 0 15-6.716 15-15 0-8.285-6.715-15-15-15z"/><path d="m112.945 359.184h-54.079c-8.284 0-15 6.716-15 15s6.716 15 15 15h54.079c8.284 0 15-6.716 15-15s-6.715-15-15-15z"/><path d="m112.945 419.112h-54.079c-8.284 0-15 6.716-15 15s6.716 15 15 15h54.079c8.284 0 15-6.716 15-15s-6.715-15-15-15z"/></g><path d="m451.82.006h-176.406v509.741h176.406c7.766 0 14.061-6.295 14.061-14.061v-481.619c0-7.765-6.296-14.061-14.061-14.061z" fill="#3a4de2"/><g><g><path d="m380.215 0h30v509.747h-30z" fill="#00215a"/></g></g><g fill="#f6efea"><path d="m229.725 139.835h92.662c8.284 0 15-6.716 15-15s-6.716-15-15-15h-92.662c-8.284 0-15 6.716-15 15s6.716 15 15 15z"/><path d="m322.387 169.763h-92.662c-8.284 0-15 6.716-15 15s6.716 15 15 15h92.662c8.284 0 15-6.716 15-15s-6.716-15-15-15z"/></g><g fill="#e0d2cd"><path d="m322.387 169.763h-46.973v30h46.973c8.284 0 15-6.716 15-15s-6.716-15-15-15z"/><path d="m322.387 109.835h-46.973v30h46.973c8.284 0 15-6.716 15-15s-6.716-15-15-15z"/></g></g></svg>